# xmcd CD database file
#
# Track frame offsets:
#	150
#	33290
#	66597
#	96617
#	137968
#	175783
#	205407
#
# Disc length: 3042 seconds
#
# Revision: 0
# Processed by: cddbd v1.5.2PL0 Copyright (c) Steve Scherf et al.
# Submitted via: CDex 1.77
#
DISCID=6c0be007
DTITLE=Vilkka Wahl Quintet - Nebula
DYEAR=2017
DGENRE=Jazz
TTITLE0=Picket for Thomas
TTITLE1=Pentapolar Disorder
TTITLE2=Waltz for Miljenka
TTITLE3=Crevasse
TTITLE4=Die Ewige
TTITLE5=Nebula
TTITLE6=Four Drinks or more
EXTD=YEAR: 2017
EXTT0=
EXTT1=
EXTT2=
EXTT3=
EXTT4=
EXTT5=
EXTT6=
PLAYORDER=
